<?xml version="1.0" encoding="UTF-8" standalone="no"?>
<!-- Created with Inkscape (http://www.inkscape.org/) -->

<svg
   version="1.1"
   id="svg1"
   width="1028.032"
   height="1000.2066"
   viewBox="0 0 1028.032 1000.2067"
   sodipodi:docname="clawdia-logo.svg"
   inkscape:version="1.4 (1:1.4+202410161351+e7c3feb100)"
   xmlns:inkscape="http://www.inkscape.org/namespaces/inkscape"
   xmlns:sodipodi="http://sodipodi.sourceforge.net/DTD/sodipodi-0.dtd"
   xmlns="http://www.w3.org/2000/svg"
   xmlns:svg="http://www.w3.org/2000/svg">
  <defs
     id="defs1" />
  <sodipodi:namedview
     id="namedview1"
     pagecolor="#ffffff"
     bordercolor="#666666"
     borderopacity="1.0"
     inkscape:showpageshadow="2"
     inkscape:pageopacity="0.0"
     inkscape:pagecheckerboard="0"
     inkscape:deskcolor="#d1d1d1"
     showgrid="false"
     inkscape:zoom="1.1109678"
     inkscape:cx="514.41634"
     inkscape:cy="500.46454"
     inkscape:window-width="2512"
     inkscape:window-height="1403"
     inkscape:window-x="48"
     inkscape:window-y="0"
     inkscape:window-maximized="1"
     inkscape:current-layer="svg1" />
  <path
     style="fill:#800080"
     d="m 484.30143,990.71222 c 0,-11.2915 -1.85862,-10.4083 24,-11.4038 9.9,-0.3811 22.79999,-1.339 28.66666,-2.1286 5.86667,-0.7896 17.56667,-2.3789 26,-3.5318 129.41303,-17.69197 239.05115,-81.44984 324.1129,-188.48143 56.42939,-71.00404 89.70872,-170.75476 82.73897,-247.99998 C 960.45522,433.3779 953.36939,400.95241 929.18726,351.2272 791.30811,67.709192 426.86165,29.868501 260.84949,281.8333 c -59.99446,91.05652 -75.97769,224.67693 -34.88943,291.67684 3.25705,5.31106 8.09053,13.60789 10.74107,18.43741 7.1149,12.96401 14.79841,24.08743 23.40656,33.88572 1.28852,1.46667 3.66648,4.84921 5.28437,7.51677 8.2227,13.55757 7.528,9.83795 -5.5128,-29.51677 -6.16381,-18.60124 -12.90762,-43.07927 -12.92558,-46.916 -0.008,-1.6962 -0.90937,-6.03412 -2.00318,-9.63982 C 156.3759,255.2957 544.31124,19.554188 789.89934,216.12157 938.88573,335.36947 979.73685,519.91518 897.2691,701.1666 854.46243,795.24908 752.96183,884.82479 638.96808,929.12088 551.62941,963.05925 454.05363,972.45132 376.20854,954.41249 193.91913,912.17111 68.4217,790.37437 26.376009,614.89586 c -6.778475,-28.2901 -8.168898,-33.4381 -11.450711,-42.39592 -1.986476,-5.42216 -3.324513,-13.37051 -4.15242,-24.66667 -0.671834,-9.16666 -2.6755815,-23.26666 -4.4527712,-31.33333 -8.9452205,-40.60237 -8.4090264,-59.33332 1.6984817,-59.33332 7.7171245,0 7.7171245,0 9.3503165,20.33333 0.898256,11.18333 2.837316,25.13333 4.309022,30.99999 1.471707,5.86667 3.280372,17.26667 4.019257,25.33334 2.177011,23.76721 3.755846,32.39661 7.154318,39.10317 1.763606,3.48031 4.791647,14.02189 6.72898,23.42574 24.518867,119.01498 105.077668,229.79673 207.387628,285.19247 61.4994,33.29885 103.25439,48.40965 161.52509,58.45464 52.89346,9.11803 143.097,-0.5609 204.47864,-21.94077 30.55913,-10.64407 38.64033,-14.04733 65.35291,-27.52229 C 891.35677,783.08381 979.56993,544.96459 877.4013,353.16662 858.4494,317.58883 816.91366,263.66813 794.48367,245.52497 789.2537,241.29455 781.27217,234.73173 776.74693,230.94092 585.28872,70.555634 273.26847,203.52503 256.29891,452.73313 c -5.98804,87.93799 59.03837,149.63971 125.45824,119.04377 14.0379,-6.46648 19.66227,-6.63811 28.78621,-0.87842 15.40282,9.72338 20.16601,-33.7851 5.52433,-50.46104 -8.33973,-9.49844 2.96624,-9.6032 13.2914,-0.12316 19.51948,17.9218 22.36814,61.23482 4.94097,75.12626 -2.57094,2.04933 -5.3645,5.82606 -6.20789,8.39273 -12.33678,37.54378 -68.64373,42.08268 -103.97589,8.3815 -11.72842,-11.18702 -18.0603,-5.58799 -9.05524,8.00719 29.89747,45.13693 111.18458,39.54961 126.51612,-8.69618 3.8589,-12.14331 28.76552,-8.79954 35.18255,4.72334 7.9029,16.65413 -10.10721,38.77942 -42.19673,51.83834 -21.0647,8.57234 -21.44186,13.97506 -0.68205,9.77017 32.31838,-6.54608 57.92301,-28.18871 59.68527,-50.44973 0.84161,-10.63136 1.25499,-10.89373 16.46465,-10.4501 37.54402,1.09509 31.55505,50.01081 -8.48704,69.31899 -23.573,11.36683 -53.66065,18.01942 -70.33397,15.55132 -7.90495,-1.17015 -8.07957,6.36067 -0.24174,10.42516 38.23671,19.82854 118.66666,-27.54209 118.66666,-69.89082 0,-5.72607 1.33482,-6.52918 10.85195,-6.52918 20.91344,0 29.14804,8.13751 29.14804,28.80437 0,19.43402 -3.1899,27.72581 -17.00231,44.19562 -3.2288,3.85 -5.4119,7 -4.85133,7 0.56057,0 -0.72008,1.81544 -2.84589,4.03431 -2.12582,2.21887 -4.66924,3.72575 -5.65204,3.34861 -0.98281,-0.37714 -1.44871,-0.13846 -1.03533,0.5304 0.97235,1.5733 -6.57603,6.97999 -7.97737,5.71395 -0.58479,-0.52833 -0.71716,-0.34895 -0.29415,0.39861 2.79179,4.93383 -41.06374,26.06479 -66.34157,31.96543 -2.2,0.51355 -5.5,1.28932 -7.33333,1.72393 -1.83333,0.43462 -5.28333,0.78147 -7.66667,0.77078 -2.38333,-0.0107 -4.33333,0.33215 -4.33333,0.76186 0,0.4297 -9.66893,0.64706 -21.48651,0.48302 C 364.82256,764.48152 312.49793,730.41352 236.60975,631.3062 214.15873,601.98596 196.82779,562.21027 187.47496,518.53851 173.48747,453.2258 193.95597,350.06573 233.17959,288.18977 257.58912,249.68331 274.30277,228.56275 300.19642,203.50254 376.48195,129.67241 474.07276,90.80455 576.1646,93.59163 c 197.62883,5.39522 368.2635,154.92526 403.47847,353.57499 22.66633,127.8621 11.06239,206.24846 -44.41059,299.99997 -76.01369,128.46615 -199.68866,214.01863 -351.59773,243.21863 -67.56563,12.98748 -99.33332,13.09208 -99.33332,0.327 z M 453.63476,875.73582 C 416.01495,872.1927 383.90222,864.42607 343.85843,849.18584 308.60358,835.76823 260.92814,806.07572 226.50873,776.09985 189.43894,743.81575 152.91356,696.73616 128.03115,649.1666 115.17634,624.5911 96.255884,570.551 91.151973,543.83327 90.381482,539.79994 87.341626,523.89994 84.396738,508.49994 59.594231,378.79772 107.00609,245.31689 215.87364,138.34687 298.77993,56.885608 408.03671,7.3171772 519.96809,0.38303015 c 15,-0.92925 15,-0.92925 15,9.10501005 0,11.7566198 0.1728,11.6310028 -16.03981,11.6604028 C 420.57888,21.326791 290.4742,84.52682 211.47061,170.49997 129.10896,260.12744 83.486699,384.69757 99.890259,475.16661 c 1.595581,8.8 3.570711,21.69471 4.389161,28.65492 18.99305,161.51938 136.40621,299.08773 291.99569,342.1198 37.57106,10.39119 103.85451,13.67006 148.02631,7.32248 42.2478,-6.0711 50.99316,-7.73318 76.66666,-14.57074 21.44618,-5.7117 47.82123,-16.44728 62.61626,-25.48703 4.42772,-2.70533 13.6201,-7.79185 20.42751,-11.30338 11.54968,-5.95777 18.62375,-11.04164 59.82083,-42.99093 49.34171,-38.26565 95.50084,-132.46489 103.05528,-210.31003 6.03112,-62.14813 -4.10368,-117.39552 -31.38174,-171.06974 -18.93142,-37.25078 -47.29458,-74.84921 -35.90074,-47.5903 8.74026,20.91042 20.87276,54.77426 23.88105,66.65603 4.38468,17.31801 10.11087,48.49187 9.94229,54.12669 -0.0731,2.44323 0.98406,11.04223 2.34922,19.1089 12.38798,73.19974 -15.11076,171.43797 -65.31442,233.33332 -44.74767,55.16874 -106.65829,102.0627 -147.38958,111.63966 -6.29161,1.47932 -17.73929,4.49511 -25.43929,6.70175 C 412.81116,874.47432 211.99691,764.98377 150.71618,577.83327 41.086624,243.02609 412.41643,-64.892801 745.24785,84.82804 c 151.37792,68.09582 260.71445,212.14625 277.04465,365.00524 0.47,4.4 1.6606,12.8 2.6457,18.66667 5.1931,30.92764 4.3791,35.33333 -6.5285,35.33333 -11.5231,0 -10.2795,2.15375 -12.7039,-22 -2.8239,-28.13294 -5.5386,-49.73873 -7.5388,-60 C 979.28906,324.98731 905.3695,208.87186 830.52795,158.49997 824.5353,154.46664 815.73279,148.40743 810.96681,145.03506 767.26879,114.11469 689.2361,81.84415 638.96808,73.90472 377.29725,32.57593 152.32951,213.45022 152.32456,465.16661 c -0.002,85.24469 29.7766,161.10311 90.81006,231.33332 14.34177,16.50284 40.15826,38.9619 69.16682,60.17168 70.77861,51.75021 173.8221,69.43083 272.05797,46.68081 7.6681,-1.77583 19.2629,-4.21634 25.76622,-5.42337 48.24656,-8.95465 126.66042,-71.8878 163.42083,-131.15778 50.25073,-81.02086 59.70564,-198.53107 19.52468,-242.66225 -25.9907,-28.54586 -63.67782,-37.57181 -95.55877,-22.88603 -14.0379,6.46648 -19.66228,6.63811 -28.78622,0.87842 -16.34931,-10.32086 -20.1912,35.42049 -4.38238,52.17637 7.63086,8.088 -5.43135,6.68383 -14.35677,-1.54334 -19.65816,-18.12026 -22.53433,-61.21221 -5.01755,-75.17509 2.57095,-2.04933 5.3645,-5.82606 6.2079,-8.39273 12.29172,-37.40665 67.46553,-42.06147 103.70126,-8.74891 8.62331,7.92766 9.35219,8.28619 11.8228,5.81558 6.18273,-6.18274 -7.31339,-23.03362 -27.73334,-34.62708 -38.68952,-21.96604 -89.57262,-6.95976 -101.27571,29.8679 -3.61586,11.37848 -25.65794,9.67348 -34.01937,-2.63147 -10.95518,-16.12199 7.39648,-40.24151 41.03354,-53.93021 21.06471,-8.57234 21.44187,-13.97506 0.68205,-9.77017 -32.31838,6.54608 -57.923,28.18871 -59.68526,50.44973 -0.84162,10.63136 -1.255,10.89373 -16.46465,10.4501 -37.54403,-1.09509 -31.55505,-50.01081 8.48704,-69.31899 23.69453,-11.42544 53.38483,-17.96473 70.15021,-15.45061 8.0978,1.21434 8.41019,-6.44832 0.4255,-10.43712 -38.25794,-19.11198 -113.59238,23.6089 -118.39305,67.13869 -1.44384,13.09192 -23.46148,13.25005 -34.90398,0.25068 -26.31545,-29.89593 16.49732,-85.85671 85.37521,-111.59433 154.37298,-57.68461 331.1304,137.88461 305.97241,338.5362 -11.73385,93.58514 -76.68198,209.11007 -139.59673,248.30434 -5.61704,3.49927 -16.30643,10.42834 -23.7542,15.39793 -14.31057,9.54886 -43.60871,22.39961 -67.36633,29.54821 -6.6,1.98592 -18.6,5.73203 -26.66667,8.32468 -57.24085,18.3974 -115.10793,24.6662 -175.33332,18.99405 z M 594.19719,647.48108 c -4.66371,-5.5235 -10.03412,-17.0347 -8.82551,-18.91703 0.51136,-0.79641 2.58628,-3.87603 4.61094,-6.84361 10.30146,-15.09906 12.84352,-43.92404 5.73986,-65.08548 -5.28899,-15.75562 -4.49177,-18.14354 4.27318,-12.79953 24.45149,14.90812 25.49906,93.65937 1.41157,106.11549 -3.36802,1.74167 -3.7705,1.6038 -7.21004,-2.46984 z m -54.06237,-23.98114 c -0.87657,-1.65 -4.22864,-6.24301 -7.44904,-10.20667 -5.85527,-7.20667 -5.85527,-7.20667 -1.09808,-12.07848 8.46926,-8.6733 9.45975,-29.40227 2.12857,-44.54647 -3.75409,-7.75491 -3.52497,-8.83505 1.87404,-8.83505 21.12959,0 31.62688,55.01123 14.02762,73.5119 -5.65448,5.94409 -7.27446,6.31219 -9.48311,2.15477 z M 480.90843,605.4666 c -2.96615,-2.73167 -7.16614,-6.251 -9.33333,-7.82074 -3.94034,-2.85407 -3.94034,-2.85407 -0.3444,-6.66666 9.97129,-10.57207 10.42853,-35.10922 0.9436,-50.63664 -3.83953,-6.28553 -3.35757,-7.65761 2.3637,-6.72918 22.88819,3.71424 34.30344,54.56904 16.73476,74.55322 -2.88907,3.28629 -4.2488,2.93207 -10.36433,-2.7 z M 600.96809,438.5453 c -17.75971,-7.45211 -28.09495,-47.16548 -17.33334,-66.6037 5.83863,-10.54604 7.30406,-11.0291 14.23241,-4.69157 3.17217,2.90167 7.56759,6.57553 9.76759,8.16413 4,2.88836 4,2.88836 0.40407,6.65375 -9.96886,10.4386 -10.42815,35.06264 -0.94361,50.58942 4.1846,6.85043 1.74763,9.19228 -6.12712,5.88797 z m -121.69423,-9.38083 c -23.12118,-14.09703 -25.77946,-87.86763 -3.77115,-104.65418 5.67022,-4.32489 7.69675,-3.32751 13.52138,6.65471 6.14624,10.5334 6.17866,11.38681 0.73989,19.47771 -10.86218,16.15893 -13.48939,44.058 -6.19508,65.78736 5.26574,15.68636 4.46082,18.07286 -4.29504,12.7344 z m 56.06524,-7.66452 c -13.36449,-12.52956 -18.49116,-34.51425 -12.98134,-55.66787 3.24425,-12.45549 12.67936,-22.77748 15.88597,-17.37919 0.76506,1.28798 4.26222,5.97847 7.77147,10.4233 6.38044,8.08152 6.38044,8.08152 1.60837,12.96856 -8.45143,8.65504 -9.39226,29.36172 -2.02552,44.57938 4.7113,9.73224 -1.83663,12.97196 -10.25895,5.07582 z"
     id="path1"
     inkscape:highlight-color="#aaaaaa" />
</svg>
